<?xml version="1.0" standalone="no"?>
<!DOCTYPE svg PUBLIC "-//W3C//DTD SVG 20010904//EN"
 "http://www.w3.org/TR/2001/REC-SVG-20010904/DTD/svg10.dtd">
<svg version="1.0" xmlns="http://www.w3.org/2000/svg"
 width="180.000000pt" height="180.000000pt" viewBox="0 0 180.000000 180.000000"
 preserveAspectRatio="xMidYMid meet">
<metadata>
Created by potrace 1.11, written by Peter Selinger 2001-2013
</metadata>
<g transform="translate(0.000000,180.000000) scale(0.100000,-0.100000)"
fill="#000000" stroke="none">
<path d="M1019 1472 c-87 -52 -119 -86 -119 -127 0 -49 18 -82 55 -99 44 -21
78 -12 160 42 56 38 72 55 82 85 11 31 10 44 -1 72 -29 68 -90 77 -177 27z"/>
<path d="M1260 1259 c-522 -341 -656 -426 -677 -431 -26 -7 -63 17 -63 40 1
29 21 47 158 137 73 48 140 99 149 112 49 75 -32 178 -116 147 -58 -22 -424
-268 -441 -297 -29 -47 -11 -104 41 -136 25 -15 37 -17 67 -9 95 25 117 17
110 -39 -3 -24 -24 -42 -143 -120 -149 -98 -170 -123 -159 -183 9 -40 57 -80
97 -80 40 0 33 -4 567 345 118 77 231 151 251 163 67 41 119 34 119 -16 0 -35
-29 -63 -145 -138 -271 -174 -412 -268 -432 -287 -50 -45 -33 -135 30 -162 36
-15 70 -11 112 14 29 17 607 394 690 450 74 49 84 125 24 175 -38 32 -66 33
-132 1 -29 -13 -59 -23 -67 -21 -60 12 -67 50 -17 96 17 16 88 66 157 111 69
44 133 88 144 97 66 60 22 172 -68 172 -36 0 -69 -19 -256 -141z"/>
</g>
</svg>
